<?xml version="1.0" encoding="UTF-8" standalone="no"?>
<svg
   xmlns:dc="http://purl.org/dc/elements/1.1/"
   xmlns:cc="http://creativecommons.org/ns#"
   xmlns:rdf="http://www.w3.org/1999/02/22-rdf-syntax-ns#"
   xmlns:svg="http://www.w3.org/2000/svg"
   xmlns="http://www.w3.org/2000/svg"
   viewBox="0 0 186.70667 210.05333"
   height="210.05333"
   width="186.70667"
   xml:space="preserve"
   id="svg2"
   version="1.1"><metadata
     id="metadata8"><rdf:RDF><cc:Work
         rdf:about=""><dc:format>image/svg+xml</dc:format><dc:type
           rdf:resource="http://purl.org/dc/dcmitype/StillImage" /></cc:Work></rdf:RDF></metadata><defs
     id="defs6" /><g
     transform="matrix(1.3333333,0,0,-1.3333333,0,210.05333)"
     id="g10"><g
       transform="scale(0.1)"
       id="g12"><path
         id="path14"
         style="fill:#ffffff;fill-opacity:1;fill-rule:nonzero;stroke:none"
         d="M 1400.32,0 H 0.00390625 V 1575.41 H 1400.32 V 0" /><path
         id="path16"
         style="fill:#231f20;fill-opacity:1;fill-rule:nonzero;stroke:none"
         d="m 577.023,399.199 c -7.468,0 -13.769,-4.738 -16.152,-11.199 l -32.93,-83.301 -2.898,-9.469 -2.629,9.649 -25.437,80.992 c 0,0.348 -0.235,0.609 -0.305,0.75 v 0.219 c -2.422,6.808 -8.836,11.609 -16.27,11.609 h -41.101 c -9.238,-0.519 -16.594,-8.008 -16.594,-17.359 0,-2.481 1.191,-5.77 1.984,-8.891 l 5.372,-16.929 -20.149,-50.668 -3.191,-9.372 -2.61,9.469 -25.293,81.172 c -0.3,0.348 -0.3,0.609 -0.379,0.75 v 0.219 c -2.343,6.808 -8.925,11.609 -16.269,11.609 h -41.086 c -9.102,-0.519 -16.57,-8.008 -16.57,-17.359 0,-2.481 1.004,-5.77 2.058,-8.891 l 61.485,-183.34 c 1.836,-7.5 8.789,-13.007 16.699,-13.007 7.832,0 14.355,5.019 16.496,12.109 l 43.094,108.73 3.175,9.68 2.579,-9.582 36.277,-107.93 c 1.855,-7.5 8.586,-13.007 16.758,-13.007 7.91,0 14.433,5.25 16.672,12.589 l 72.879,185.789 c 1.046,2.321 1.757,4.86 1.757,7.469 0,9.66 -7.832,17.5 -17.422,17.5" /><path
         id="path18"
         style="fill:#231f20;fill-opacity:1;fill-rule:nonzero;stroke:none"
         d="m 883.566,399.199 c -7.468,0 -13.847,-4.738 -16.308,-11.199 l -32.723,-83.301 -3.144,-9.469 -2.383,9.649 -25.645,80.992 c 0,0.348 0,0.609 -0.097,0.75 v 0.219 c -2.461,6.808 -8.926,11.609 -16.438,11.609 h -41.074 c -9.227,-0.519 -16.453,-8.008 -16.453,-17.359 0,-2.481 0.926,-5.77 1.953,-8.891 l 5.391,-16.929 -20.227,-50.668 -3.289,-9.372 -2.461,9.469 -25.332,81.172 c -0.266,0.348 -0.266,0.609 -0.43,0.75 v 0.219 c -2.258,6.808 -8.722,11.609 -16.152,11.609 H 627.59 c -9.324,-0.519 -16.61,-8.008 -16.61,-17.359 0,-2.481 1.153,-5.77 1.981,-8.891 l 61.73,-183.34 c 1.817,-7.5 8.582,-13.007 16.68,-13.007 7.645,0 14.188,5.019 16.484,12.109 l 43.047,108.73 3.028,9.68 2.722,-9.582 36.114,-107.93 c 1.984,-7.5 8.742,-13.007 16.836,-13.007 7.871,0 14.601,5.25 16.718,12.589 l 72.91,185.789 c 1.094,2.321 1.739,4.86 1.739,7.469 0,9.66 -7.852,17.5 -17.403,17.5" /><path
         id="path20"
         style="fill:#231f20;fill-opacity:1;fill-rule:nonzero;stroke:none"
         d="M 1082.67,398.832 H 938.957 c -8.34,0 -14.98,-6.73 -14.98,-15.043 v -0.09 -36.328 -154.519 c 0,-0.102 0,0.078 0,0 h 0.039 c 0.343,-8.622 7.472,-15.641 16.093,-15.641 h 40.715 c 8.848,0.258 15.711,7.211 15.926,16.129 v 89.16 c 0,0 58.3,0.141 58.57,0.141 8.58,0.089 15.48,7.05 15.48,15.828 0,8.543 -7.01,15.672 -15.83,15.672 h -58.13 l -0.09,50.988 h 86.75 c 8.92,0.402 16.06,7.75 16.06,16.859 0,9.352 -7.64,16.844 -16.89,16.844" /><path
         id="path22"
         style="fill:#231f20;fill-opacity:1;fill-rule:nonzero;stroke:none"
         d="m 859.758,1007.18 c 26.164,-29.293 28.965,-116.442 94.68,-81.758 39.531,20.812 38.964,108.768 -13.731,140.488 -42.656,25.21 -65.988,-8.79 -81.437,-50.49 -1.192,-3.28 -1.27,-6.56 0.488,-8.24" /><path
         id="path24"
         style="fill:#231f20;fill-opacity:1;fill-rule:nonzero;stroke:none"
         d="m 757.688,1021.12 c -27.469,-22.788 -46.348,-85.229 -96.875,-64.015 -40.84,20.774 -44.754,101.685 25.636,139.075 49.031,22.55 73.926,-22.13 74.266,-69.53 0,-1.65 -1.61,-4.16 -3.027,-5.53" /><path
         id="path26"
         style="fill:#231f20;fill-opacity:1;fill-rule:nonzero;stroke:none"
         d="m 825.5,861.84 c 27.129,2.805 21.016,27.957 0.441,34.277 -18.351,5.469 -46.23,9.043 -65.929,8.68 -34.903,-0.809 -34.032,-27.457 -15.867,-31.977 13.73,-4.586 22.566,-6.402 34.441,-21.66 10.82,-21.015 6.016,6.301 46.914,10.68" /><path
         id="path28"
         style="fill:#231f20;fill-opacity:1;fill-rule:nonzero;stroke:none"
         d="m 953.547,1312.22 c 34.074,56.74 93.363,45.74 123.073,17.46 32.69,-30.72 37.96,-66.22 25.42,-91.19 -17.06,-33.49 -60.68,-74.19 -89.09,-34.8 -12.53,17.36 -39.177,38.15 -53.688,44.15 -22.336,9.41 -26.574,29.55 -5.715,64.38" /><path
         id="path30"
         style="fill:#231f20;fill-opacity:1;fill-rule:nonzero;stroke:none"
         d="m 1089.2,1061.97 c -3.06,10.05 -8.05,9.49 -7.83,1.19 2.76,-103.441 -59,-214.226 -191.19,-214.992 -33.821,-0.066 -23.664,-54.203 -85.313,-26.992 -44.492,30 -69.953,-29.047 -101.562,34.48 -6.867,18.309 -17.305,25.637 -30.793,28.985 -130.508,32.343 -172.149,211.989 -57.129,357.019 22.773,-13.57 31.094,-15.67 55.363,6.59 12.676,11.7 33.906,24.61 45.477,28.88 27.656,10.57 42.656,22.37 18.691,75.11 -30.664,68.47 -93.523,49.14 -122.254,25.48 -32.441,-26.79 -55.234,-69.89 -13.437,-120.66 -116.907,-78.87 -136.953,-175.76 -134.27,-259.955 2.766,-89.57 -20.144,-81.937 8.438,-173.101 2.519,-7.996 -3.067,-7.816 -7.371,-5.231 -121.868,78.04 -187.735,315.967 2.187,447.167 4.277,3.84 2.52,8.82 -13.105,-0.32 -164.407,-86.95 -179.504,-255.35 -152.239,-368.807 13.332,-54.946 -6.941,-65.083 14.375,-137.27 48.918,-150.457 90.645,-162.348 149.571,-166.688 107.257,0 34.523,59.149 38.437,133.461 0,4.34 5.313,6.461 8.34,-2.484 59.023,-132.41 100.715,-252.871 255.852,-241.602 89.832,11.692 40.007,56.321 34.519,81.602 -66.055,219.207 94.231,270.867 48.848,57.148 -29.95,-122.441 64.765,-110.171 131.445,-66.242 68.76,45.16 154.74,343.207 104.95,507.232 M 827.816,802.684 c -14.855,-39.305 -91.953,-25.821 -94.394,12.23 0,1.516 2.058,1.172 2.949,0.973 34.336,-8.039 67,-11.832 89.129,-11.75 0.82,0 2.637,0.465 2.316,-1.453" /><path
         id="path32"
         style="fill:#231f20;fill-opacity:1;fill-rule:nonzero;stroke:none"
         d="m 483.539,537.02 c 0,-15.899 -12.988,-28.731 -28.73,-28.731 -15.871,0 -28.711,12.832 -28.711,28.731 0,15.75 12.84,28.628 28.711,28.628 15.742,0 28.73,-12.878 28.73,-28.628 m -28.73,34.378 c -19.016,0 -34.465,-15.5 -34.465,-34.378 0,-19.032 15.488,-34.52 34.465,-34.52 19.011,0 34.277,15.488 34.277,34.52 0,18.878 -15.266,34.378 -34.277,34.378" /><path
         id="path34"
         style="fill:#231f20;fill-opacity:1;fill-rule:nonzero;stroke:none"
         d="m 464.613,531.648 c -0.664,-4.179 -4.179,-7.089 -8.965,-7.089 -6.601,0 -10.82,5.851 -10.82,12.543 0,6.976 3.817,12.187 10.781,12.187 4.649,0 8.075,-2.687 9.004,-6.777 h 4.805 c -0.852,7.609 -6.789,11.867 -13.945,11.867 -10.266,0 -16.153,-7.469 -16.153,-17.277 0,-9.864 6.375,-17.372 16.328,-17.372 6.981,0 12.579,4.532 14.012,11.918 h -5.047" /><path
         id="path36"
         style="fill:#231f20;fill-opacity:1;fill-rule:nonzero;stroke:none"
         d="m 1088.42,454.879 c 0,-15.93 -12.96,-28.738 -28.73,-28.738 -15.99,0 -28.87,12.808 -28.87,28.738 0,15.832 12.88,28.59 28.87,28.59 15.77,0 28.73,-12.758 28.73,-28.59 m -28.73,34.402 c -19.15,0 -34.41,-15.359 -34.41,-34.402 0,-19.168 15.26,-34.418 34.41,-34.418 18.92,0 34.37,15.25 34.37,34.418 0,19.043 -15.45,34.402 -34.37,34.402" /><path
         id="path38"
         style="fill:#231f20;fill-opacity:1;fill-rule:nonzero;stroke:none"
         d="m 1053.71,452.531 h 5.64 l 8.65,-13.992 h 5.37 l -9.29,14.352 c 4.85,0.609 8.49,3.148 8.49,8.828 0,6.48 -3.74,9.242 -11.39,9.242 h -12.53 v -32.422 h 5.06 z m 0,4.297 v 10.121 h 6.68 c 3.39,0 7.04,-0.91 7.04,-4.867 0,-5.031 -3.65,-5.254 -7.96,-5.254 h -5.76" /></g></g></svg>